<mxfile host="app.diagrams.net" modified="2023-05-22T00:01:59.776Z" agent="Mozilla/5.0 (Windows NT 10.0; Win64; x64) AppleWebKit/537.36 (KHTML, like Gecko) Chrome/113.0.0.0 Safari/537.36" etag="teRzS7REV-6cAUwsXFXi" version="21.3.2" type="device">
  <diagram name="Страница 1" id="6GI9x9rDUwmuzA0a5PE4">
    <mxGraphModel dx="1366" dy="1835" grid="1" gridSize="10" guides="1" tooltips="1" connect="1" arrows="1" fold="1" page="1" pageScale="1" pageWidth="827" pageHeight="1169" math="0" shadow="0">
      <root>
        <mxCell id="0" />
        <mxCell id="1" parent="0" />
        <mxCell id="cyIWk6aEaihhgI2aiSkn-110" value="" style="group" vertex="1" connectable="0" parent="1">
          <mxGeometry x="80" y="-680" width="120" height="155" as="geometry" />
        </mxCell>
        <mxCell id="cyIWk6aEaihhgI2aiSkn-148" style="edgeStyle=orthogonalEdgeStyle;rounded=0;orthogonalLoop=1;jettySize=auto;html=1;exitX=1;exitY=0.5;exitDx=0;exitDy=0;" edge="1" parent="cyIWk6aEaihhgI2aiSkn-110" source="cyIWk6aEaihhgI2aiSkn-109">
          <mxGeometry relative="1" as="geometry">
            <mxPoint x="280" y="59.75" as="targetPoint" />
          </mxGeometry>
        </mxCell>
        <mxCell id="cyIWk6aEaihhgI2aiSkn-109" value="" style="rounded=1;whiteSpace=wrap;html=1;strokeWidth=3;" vertex="1" parent="cyIWk6aEaihhgI2aiSkn-110">
          <mxGeometry width="120" height="120" as="geometry" />
        </mxCell>
        <mxCell id="cyIWk6aEaihhgI2aiSkn-1" value="&lt;font style=&quot;font-size: 17px;&quot;&gt;git&lt;/font&gt;" style="text;strokeColor=none;fillColor=none;html=1;fontSize=18;fontStyle=1;verticalAlign=middle;align=center;fontFamily=Courier New;" vertex="1" parent="cyIWk6aEaihhgI2aiSkn-110">
          <mxGeometry x="25.5" y="125" width="69" height="30" as="geometry" />
        </mxCell>
        <mxCell id="cyIWk6aEaihhgI2aiSkn-4" style="edgeStyle=orthogonalEdgeStyle;rounded=0;orthogonalLoop=1;jettySize=auto;html=1;exitX=0.5;exitY=1;exitDx=0;exitDy=0;" edge="1" parent="cyIWk6aEaihhgI2aiSkn-110" source="cyIWk6aEaihhgI2aiSkn-1" target="cyIWk6aEaihhgI2aiSkn-1">
          <mxGeometry relative="1" as="geometry" />
        </mxCell>
        <mxCell id="cyIWk6aEaihhgI2aiSkn-81" value="" style="verticalLabelPosition=bottom;html=1;verticalAlign=top;align=center;strokeColor=none;fillColor=#326ce5;shape=mxgraph.azure.github_code;pointerEvents=1;" vertex="1" parent="cyIWk6aEaihhgI2aiSkn-110">
          <mxGeometry x="24.499999999999986" y="25" width="70" height="70" as="geometry" />
        </mxCell>
        <mxCell id="cyIWk6aEaihhgI2aiSkn-116" value="" style="group" vertex="1" connectable="0" parent="1">
          <mxGeometry x="360.75" y="-680" width="120" height="155" as="geometry" />
        </mxCell>
        <mxCell id="cyIWk6aEaihhgI2aiSkn-149" style="edgeStyle=orthogonalEdgeStyle;rounded=0;orthogonalLoop=1;jettySize=auto;html=1;exitX=1;exitY=0.5;exitDx=0;exitDy=0;" edge="1" parent="cyIWk6aEaihhgI2aiSkn-116" source="cyIWk6aEaihhgI2aiSkn-117">
          <mxGeometry relative="1" as="geometry">
            <mxPoint x="279.25" y="59.75" as="targetPoint" />
          </mxGeometry>
        </mxCell>
        <mxCell id="cyIWk6aEaihhgI2aiSkn-117" value="" style="rounded=1;whiteSpace=wrap;html=1;strokeWidth=3;" vertex="1" parent="cyIWk6aEaihhgI2aiSkn-116">
          <mxGeometry width="120" height="120" as="geometry" />
        </mxCell>
        <mxCell id="cyIWk6aEaihhgI2aiSkn-118" value="&lt;span style=&quot;font-size: 17px;&quot;&gt;runner&lt;/span&gt;" style="text;strokeColor=none;fillColor=none;html=1;fontSize=18;fontStyle=1;verticalAlign=middle;align=center;fontFamily=Courier New;" vertex="1" parent="cyIWk6aEaihhgI2aiSkn-116">
          <mxGeometry x="25.5" y="125" width="69" height="30" as="geometry" />
        </mxCell>
        <mxCell id="cyIWk6aEaihhgI2aiSkn-119" style="edgeStyle=orthogonalEdgeStyle;rounded=0;orthogonalLoop=1;jettySize=auto;html=1;exitX=0.5;exitY=1;exitDx=0;exitDy=0;" edge="1" parent="cyIWk6aEaihhgI2aiSkn-116" source="cyIWk6aEaihhgI2aiSkn-118" target="cyIWk6aEaihhgI2aiSkn-118">
          <mxGeometry relative="1" as="geometry" />
        </mxCell>
        <mxCell id="cyIWk6aEaihhgI2aiSkn-219" value="" style="sketch=0;html=1;verticalAlign=top;labelPosition=center;verticalLabelPosition=bottom;align=center;spacingTop=-6;fontSize=11;fontStyle=1;fontColor=#999999;shape=image;aspect=fixed;imageAspect=0;image=data:image/svg+xml,PHN2ZyB4bWxucz0iaHR0cDovL3d3dy53My5vcmcvMjAwMC9zdmciIHhtbG5zOnY9Imh0dHBzOi8vdmVjdGEuaW8vbmFubyIgd2lkdGg9IjIwIiBoZWlnaHQ9IjIwIiB2aWV3Qm94PSIwIDAgMjAgMjAiPiYjeGE7CTxzdHlsZSB0eXBlPSJ0ZXh0L2NzcyI+JiN4YTsJLnN0MHtmaWxsOiM0Mjg1ZjQ7fSYjeGE7CTwvc3R5bGU+JiN4YTsJPHBhdGggY2xhc3M9InN0MCIgZD0iTTEwIDBhMTAgMTAgMCAxIDAgMTAgMTBoMEExMCAxMCAwIDAgMCAxMCAwem0wIDE4YTggOCAwIDAgMS00LjE4LTEuMThsMy41OC0yLjA3aDB2LTQuNUw1LjUxIDh2NC41MmwyLjc1IDEuNTktMy40NiAyQTggOCAwIDAgMSA2LjA4IDN2NGgwTDEwIDkuMjggMTMuOSA3IDEwIDQuNzcgNy4yNCA2LjM2VjIuNDdhOCA4IDAgMCAxIDEwLjMxIDQuNyA4LjEgOC4xIDAgMCAxIC41MSAyLjgzdi4wN0wxNC40NiA4aDBsLTMuOSAyLjI2djQuNTFsMy45LTIuMjVWOS4zNGwzLjQ1IDJBOCA4IDAgMCAxIDEwIDE4eiIvPiYjeGE7PC9zdmc+;" vertex="1" parent="cyIWk6aEaihhgI2aiSkn-116">
          <mxGeometry x="25.5" y="25" width="70" height="70" as="geometry" />
        </mxCell>
        <mxCell id="cyIWk6aEaihhgI2aiSkn-126" value="" style="group" vertex="1" connectable="0" parent="1">
          <mxGeometry x="640" y="-680" width="120" height="155" as="geometry" />
        </mxCell>
        <mxCell id="cyIWk6aEaihhgI2aiSkn-127" value="" style="rounded=1;whiteSpace=wrap;html=1;strokeWidth=3;" vertex="1" parent="cyIWk6aEaihhgI2aiSkn-126">
          <mxGeometry width="120" height="120" as="geometry" />
        </mxCell>
        <mxCell id="cyIWk6aEaihhgI2aiSkn-128" value="&lt;span style=&quot;font-size: 17px;&quot;&gt;registry&lt;/span&gt;" style="text;strokeColor=none;fillColor=none;html=1;fontSize=18;fontStyle=1;verticalAlign=middle;align=center;fontFamily=Courier New;" vertex="1" parent="cyIWk6aEaihhgI2aiSkn-126">
          <mxGeometry x="25.5" y="125" width="69" height="30" as="geometry" />
        </mxCell>
        <mxCell id="cyIWk6aEaihhgI2aiSkn-129" style="edgeStyle=orthogonalEdgeStyle;rounded=0;orthogonalLoop=1;jettySize=auto;html=1;exitX=0.5;exitY=1;exitDx=0;exitDy=0;" edge="1" parent="cyIWk6aEaihhgI2aiSkn-126" source="cyIWk6aEaihhgI2aiSkn-128" target="cyIWk6aEaihhgI2aiSkn-128">
          <mxGeometry relative="1" as="geometry" />
        </mxCell>
        <mxCell id="cyIWk6aEaihhgI2aiSkn-131" value="" style="editableCssRules=.*;html=1;shape=image;verticalLabelPosition=bottom;labelBackgroundColor=#ffffff;verticalAlign=top;aspect=fixed;imageAspect=0;image=data:image/svg+xml,PHN2ZyB4bWxucz0iaHR0cDovL3d3dy53My5vcmcvMjAwMC9zdmciIHhtbG5zOnY9Imh0dHBzOi8vdmVjdGEuaW8vbmFubyIgd2lkdGg9IjM3Ny4xNTkzMDIxNjAyNjMwNSIgaGVpZ2h0PSIzMzYuMTYyNDk5MDAzMzEwOCIgdmlld0JveD0iLTAuMDU4MDAwMDA1NzgxNjUwNTQgMC4xMTI5OTk5OTgwMzMwNDY3MiA5OS43OTAwMDA5MTU1MjczNCA4OC45NDMwMDA3OTM0NTcwMyI+JiN4YTs8c3R5bGUgdHlwZT0idGV4dC9jc3MiPiYjeGE7CS5zdDB7ZmlsbDojNjY5ZGY2O30mI3hhOwkuc3Qxe2ZpbGw6I2FlY2JmYTt9JiN4YTsJLnN0MntmaWxsOiM0Mjg1ZjQ7fSYjeGE7PC9zdHlsZT4mI3hhOwk8cGF0aCBjbGFzcz0ic3QwIiBkPSJNNTMuMjQzIDYyLjA5VjQ3LjA5NGwxMy4yMDEgOC40MTZ2MTUuMDM4em0tMzMuMDIxIDBWNDcuMDk0bDEzLjIwMSA4LjQxNnYxNS4wMzh6bTE2LjUxMS0zMi4yODVWMTQuODFsMTMuMjAxIDguNDE2djE1LjAzOHptNjIuOTk5IDMzLjk2VjI1LjQwM2wtOS41NjItMS44ODR2NDIuMTMxem0tOTkuNzg4IDBWMjUuNDAzbDkuNTYyLTEuODg0djQyLjEzMXoiLz4mI3hhOwk8cGF0aCBjbGFzcz0ic3QxIiBkPSJNNTMuMTg1IDQ3LjA5NGwxMy4yNTgtOC4yODcgMTMuMDE2IDguMjM0LTEzLjAxNiA4LjQ2OXptLTMzLjAyMSAwbDEzLjI1OC04LjI4NyAxMy4wMTYgOC4yMzQtMTMuMDE2IDguNDY5ek0zNi42NzUgMTQuODFsMTMuMjU4LTguMjg3IDEzLjAxNiA4LjIzNC0xMy4wMTYgOC40Njl6bTYzLjA1NiA0OC45NTZ2MTIuMjE3TDc3LjAxIDg5LjA1NVY3Ny43NTJ6bTAtMzguMzYzVjEzLjE4Nkw3Ny4wMS4xMTN2MTEuMzAzek0tLjA1OCA2My43NjZ2MTIuMjE3bDIyLjcyMSAxMy4wNzNWNzcuNzUyem0wLTM4LjM2M1YxMy4xODZMMjIuNjYzLjExM3YxMS4zMDN6Ii8+JiN4YTsJPHBhdGggY2xhc3M9InN0MiIgZD0iTTY2LjQ0NCA3MC41NDdWNTUuNTFsMTMuMDE2LTguNDY5djE1LjR6bS0zMy4wMjEgMFY1NS41MWwxMy4wMTYtOC40Njl2MTUuNHptMTYuNTExLTMyLjI4NVYyMy4yMjVsMTMuMDE2LTguNDY5djE1LjR6bTQ5Ljc5OCAyNS41MDNsLTkuNTYyIDUuODh2LTMuOTk2em0wLTM4LjM2M2wtOS41NjItNS44OHYzLjk5NnpNLS4wNTggNjMuNzY2bDkuNTYyIDUuODh2LTMuOTk2em0wLTM4LjM2M2w5LjU2Mi01Ljg4djMuOTk2eiIvPiYjeGE7PC9zdmc+;" vertex="1" parent="cyIWk6aEaihhgI2aiSkn-126">
          <mxGeometry x="25" y="28.5" width="70" height="63" as="geometry" />
        </mxCell>
        <mxCell id="cyIWk6aEaihhgI2aiSkn-132" value="" style="group" vertex="1" connectable="0" parent="1">
          <mxGeometry x="80" y="-400" width="746.67" height="194" as="geometry" />
        </mxCell>
        <mxCell id="cyIWk6aEaihhgI2aiSkn-170" value="" style="group" vertex="1" connectable="0" parent="cyIWk6aEaihhgI2aiSkn-132">
          <mxGeometry x="-38.5" y="-40" width="758.5" height="190" as="geometry" />
        </mxCell>
        <mxCell id="cyIWk6aEaihhgI2aiSkn-107" value="" style="rounded=1;whiteSpace=wrap;html=1;" vertex="1" parent="cyIWk6aEaihhgI2aiSkn-170">
          <mxGeometry width="758.5" height="190" as="geometry" />
        </mxCell>
        <mxCell id="cyIWk6aEaihhgI2aiSkn-133" value="" style="rounded=1;whiteSpace=wrap;html=1;strokeWidth=3;" vertex="1" parent="cyIWk6aEaihhgI2aiSkn-170">
          <mxGeometry x="40" y="20" width="120" height="120" as="geometry" />
        </mxCell>
        <mxCell id="cyIWk6aEaihhgI2aiSkn-134" value="kube-master-1" style="text;strokeColor=none;fillColor=none;html=1;fontSize=18;fontStyle=1;verticalAlign=middle;align=center;fontFamily=Courier New;" vertex="1" parent="cyIWk6aEaihhgI2aiSkn-170">
          <mxGeometry x="65.5" y="145" width="69" height="30" as="geometry" />
        </mxCell>
        <mxCell id="cyIWk6aEaihhgI2aiSkn-137" value="" style="sketch=0;html=1;dashed=0;whitespace=wrap;fillColor=#2875E2;strokeColor=#ffffff;points=[[0.005,0.63,0],[0.1,0.2,0],[0.9,0.2,0],[0.5,0,0],[0.995,0.63,0],[0.72,0.99,0],[0.5,1,0],[0.28,0.99,0]];verticalLabelPosition=bottom;align=center;verticalAlign=top;shape=mxgraph.kubernetes.icon;prIcon=master" vertex="1" parent="cyIWk6aEaihhgI2aiSkn-170">
          <mxGeometry x="62.5" y="44" width="75" height="72" as="geometry" />
        </mxCell>
        <mxCell id="cyIWk6aEaihhgI2aiSkn-135" style="edgeStyle=orthogonalEdgeStyle;rounded=0;orthogonalLoop=1;jettySize=auto;html=1;exitX=0.5;exitY=1;exitDx=0;exitDy=0;" edge="1" parent="cyIWk6aEaihhgI2aiSkn-170" source="cyIWk6aEaihhgI2aiSkn-134" target="cyIWk6aEaihhgI2aiSkn-134">
          <mxGeometry relative="1" as="geometry" />
        </mxCell>
        <mxCell id="cyIWk6aEaihhgI2aiSkn-139" value="" style="rounded=1;whiteSpace=wrap;html=1;strokeWidth=3;" vertex="1" parent="cyIWk6aEaihhgI2aiSkn-132">
          <mxGeometry x="281.5" y="-20" width="120" height="120" as="geometry" />
        </mxCell>
        <mxCell id="cyIWk6aEaihhgI2aiSkn-140" value="kube-node-1" style="text;strokeColor=none;fillColor=none;html=1;fontSize=18;fontStyle=1;verticalAlign=middle;align=center;fontFamily=Courier New;" vertex="1" parent="cyIWk6aEaihhgI2aiSkn-132">
          <mxGeometry x="307" y="105" width="69" height="30" as="geometry" />
        </mxCell>
        <mxCell id="cyIWk6aEaihhgI2aiSkn-141" style="edgeStyle=orthogonalEdgeStyle;rounded=0;orthogonalLoop=1;jettySize=auto;html=1;exitX=0.5;exitY=1;exitDx=0;exitDy=0;" edge="1" parent="cyIWk6aEaihhgI2aiSkn-132" source="cyIWk6aEaihhgI2aiSkn-140" target="cyIWk6aEaihhgI2aiSkn-140">
          <mxGeometry relative="1" as="geometry" />
        </mxCell>
        <mxCell id="cyIWk6aEaihhgI2aiSkn-101" value="" style="sketch=0;html=1;dashed=0;whitespace=wrap;fillColor=#2875E2;strokeColor=#ffffff;points=[[0.005,0.63,0],[0.1,0.2,0],[0.9,0.2,0],[0.5,0,0],[0.995,0.63,0],[0.72,0.99,0],[0.5,1,0],[0.28,0.99,0]];verticalLabelPosition=bottom;align=center;verticalAlign=top;shape=mxgraph.kubernetes.icon;prIcon=node" vertex="1" parent="cyIWk6aEaihhgI2aiSkn-132">
          <mxGeometry x="305.04" y="5" width="72.92" height="70" as="geometry" />
        </mxCell>
        <mxCell id="cyIWk6aEaihhgI2aiSkn-143" value="" style="group" vertex="1" connectable="0" parent="cyIWk6aEaihhgI2aiSkn-132">
          <mxGeometry x="561.5" y="-20" width="120" height="155" as="geometry" />
        </mxCell>
        <mxCell id="cyIWk6aEaihhgI2aiSkn-144" value="" style="rounded=1;whiteSpace=wrap;html=1;strokeWidth=3;" vertex="1" parent="cyIWk6aEaihhgI2aiSkn-143">
          <mxGeometry width="120" height="120" as="geometry" />
        </mxCell>
        <mxCell id="cyIWk6aEaihhgI2aiSkn-145" value="kube-node-2" style="text;strokeColor=none;fillColor=none;html=1;fontSize=18;fontStyle=1;verticalAlign=middle;align=center;fontFamily=Courier New;" vertex="1" parent="cyIWk6aEaihhgI2aiSkn-143">
          <mxGeometry x="25.5" y="125" width="69" height="30" as="geometry" />
        </mxCell>
        <mxCell id="cyIWk6aEaihhgI2aiSkn-146" style="edgeStyle=orthogonalEdgeStyle;rounded=0;orthogonalLoop=1;jettySize=auto;html=1;exitX=0.5;exitY=1;exitDx=0;exitDy=0;" edge="1" parent="cyIWk6aEaihhgI2aiSkn-143" source="cyIWk6aEaihhgI2aiSkn-145" target="cyIWk6aEaihhgI2aiSkn-145">
          <mxGeometry relative="1" as="geometry" />
        </mxCell>
        <mxCell id="cyIWk6aEaihhgI2aiSkn-147" value="" style="sketch=0;html=1;dashed=0;whitespace=wrap;fillColor=#2875E2;strokeColor=#ffffff;points=[[0.005,0.63,0],[0.1,0.2,0],[0.9,0.2,0],[0.5,0,0],[0.995,0.63,0],[0.72,0.99,0],[0.5,1,0],[0.28,0.99,0]];verticalLabelPosition=bottom;align=center;verticalAlign=top;shape=mxgraph.kubernetes.icon;prIcon=node" vertex="1" parent="cyIWk6aEaihhgI2aiSkn-143">
          <mxGeometry x="23.54" y="25" width="72.92" height="70" as="geometry" />
        </mxCell>
        <mxCell id="cyIWk6aEaihhgI2aiSkn-138" value="" style="group" vertex="1" connectable="0" parent="1">
          <mxGeometry x="360.75" y="-420" width="473.5" height="260" as="geometry" />
        </mxCell>
        <mxCell id="cyIWk6aEaihhgI2aiSkn-72" value="" style="image;sketch=0;aspect=fixed;html=1;points=[];align=center;fontSize=12;image=img/lib/mscae/Kubernetes.svg;" vertex="1" parent="cyIWk6aEaihhgI2aiSkn-138">
          <mxGeometry x="410" y="150" width="45.84" height="44" as="geometry" />
        </mxCell>
        <mxCell id="cyIWk6aEaihhgI2aiSkn-215" value="Схема с&lt;span style=&quot;background-color: initial; font-size: 18px;&quot;&gt;борки и доставки приложения в кластер &lt;/span&gt;&lt;span style=&quot;background-color: initial; font-size: 18px;&quot;&gt;&lt;span style=&quot;font-size: 18px; line-height: 107%;&quot; lang=&quot;EN-US&quot;&gt;Kubernetes&lt;/span&gt;&lt;/span&gt;&lt;p align=&quot;center&quot; class=&quot;MsoNormal&quot; style=&quot;font-size: 18px;&quot;&gt;&lt;span style=&quot;font-size: 18px;&quot;&gt;&lt;/span&gt;&lt;/p&gt;" style="text;strokeColor=none;fillColor=none;html=1;fontSize=18;fontStyle=0;verticalAlign=middle;align=center;fontFamily=Times New Roman;" vertex="1" parent="cyIWk6aEaihhgI2aiSkn-138">
          <mxGeometry x="-281.27" y="240" width="691.27" height="30" as="geometry" />
        </mxCell>
        <mxCell id="cyIWk6aEaihhgI2aiSkn-165" value="" style="group" vertex="1" connectable="0" parent="1">
          <mxGeometry x="530" y="-690" width="69" height="70" as="geometry" />
        </mxCell>
        <mxCell id="cyIWk6aEaihhgI2aiSkn-93" value="&lt;font style=&quot;font-size: 17px;&quot;&gt;push&lt;/font&gt;" style="text;strokeColor=none;fillColor=none;html=1;fontSize=18;fontStyle=1;verticalAlign=middle;align=center;fontFamily=Courier New;" vertex="1" parent="cyIWk6aEaihhgI2aiSkn-165">
          <mxGeometry y="40" width="69" height="30" as="geometry" />
        </mxCell>
        <mxCell id="cyIWk6aEaihhgI2aiSkn-162" value="" style="sketch=0;html=1;verticalAlign=top;labelPosition=center;verticalLabelPosition=bottom;align=center;spacingTop=-6;fontSize=11;fontStyle=1;fontColor=#999999;shape=image;aspect=fixed;imageAspect=0;image=data:image/svg+xml,PHN2ZyB4bWxucz0iaHR0cDovL3d3dy53My5vcmcvMjAwMC9zdmciIHhtbG5zOnY9Imh0dHBzOi8vdmVjdGEuaW8vbmFubyIgd2lkdGg9IjQxNiIgaGVpZ2h0PSIzNjIuMjAwMDEyMjA3MDMxMjUiIHZpZXdCb3g9IjAgMCA0MTYgMzYyLjIwMDAxMjIwNzAzMTI1Ij4mI3hhOwk8c3R5bGUgdHlwZT0idGV4dC9jc3MiPiYjeGE7CS5zdDB7ZmlsbDojNDI4NWY0O30mI3hhOwkuc3Qxe2ZpbGw6IzY2OWRmNjt9JiN4YTsJLnN0MntmaWxsOiNhZWNiZmE7fSYjeGE7CTwvc3R5bGU+JiN4YTsJPHBhdGggY2xhc3M9InN0MiIgZD0iTTk2LjAzIDBMMCAxNjcuMTdoMTkwLjY3TDI4Ny45NCAweiIvPiYjeGE7CTxwYXRoIGNsYXNzPSJzdDAiIGQ9Ik0yODcuNTkgMzYyLjJsLTk1LjY4LTE2Ny4xN0gwTDk1LjY4IDM2Mi4yeiIvPiYjeGE7CTxwYXRoIGNsYXNzPSJzdDEiIGQ9Ik00MTYgMTgxLjFMMzIwIDEzLjMxIDIyMy44OCAxODEuMSAzMjAgMzQ4Ljl6Ii8+JiN4YTs8L3N2Zz4=;" vertex="1" parent="cyIWk6aEaihhgI2aiSkn-165">
          <mxGeometry x="13.5" width="42" height="36" as="geometry" />
        </mxCell>
        <mxCell id="cyIWk6aEaihhgI2aiSkn-166" value="" style="group" vertex="1" connectable="0" parent="1">
          <mxGeometry x="240" y="-684" width="69" height="64" as="geometry" />
        </mxCell>
        <mxCell id="cyIWk6aEaihhgI2aiSkn-92" value="&lt;font style=&quot;font-size: 17px;&quot;&gt;commit&lt;/font&gt;" style="text;strokeColor=none;fillColor=none;html=1;fontSize=18;fontStyle=1;verticalAlign=middle;align=center;fontFamily=Courier New;" vertex="1" parent="cyIWk6aEaihhgI2aiSkn-166">
          <mxGeometry y="34" width="69" height="30" as="geometry" />
        </mxCell>
        <mxCell id="cyIWk6aEaihhgI2aiSkn-157" value="" style="sketch=0;html=1;verticalAlign=top;labelPosition=center;verticalLabelPosition=bottom;align=center;spacingTop=-6;fontSize=11;fontStyle=1;fontColor=#999999;shape=image;aspect=fixed;imageAspect=0;image=data:image/svg+xml,PHN2ZyB4bWxucz0iaHR0cDovL3d3dy53My5vcmcvMjAwMC9zdmciIHhtbG5zOnY9Imh0dHBzOi8vdmVjdGEuaW8vbmFubyIgd2lkdGg9IjIwIiBoZWlnaHQ9IjE5Ljk4OTk5OTc3MTExODE2NCIgdmlld0JveD0iMCAwIDIwIDE5Ljk4OTk5OTc3MTExODE2NCI+JiN4YTsJPHN0eWxlIHR5cGU9InRleHQvY3NzIj4mI3hhOwkuc3Qwe2ZpbGw6IzQyODVmNDt9JiN4YTsJLnN0MXtmaWxsOiM2NjlkZjY7fSYjeGE7CS5zdDJ7ZmlsbDojYWVjYmZhO30mI3hhOwk8L3N0eWxlPiYjeGE7CTxwYXRoIGNsYXNzPSJzdDEiIGQ9Ik0zIDMuOTlMMCA2LjQydjcuMTNsMyAyLjQ0eiIvPiYjeGE7CTxwYXRoIGNsYXNzPSJzdDAiIGQ9Ik0zIDMuOTlsLTMgNCAzLTJ6bS0zIDhsMyA0di0yeiIvPiYjeGE7CTxwYXRoIGNsYXNzPSJzdDIiIGQ9Ik0wIDE1Ljk5bDQgNCAyLTItNi02em0uMDEtOEw1Ljk5IDJsLTItMkwwIDMuOTl6Ii8+JiN4YTsJPHBhdGggY2xhc3M9InN0MSIgZD0iTTE3IDE2bDMtMi40MlY2LjQ0TDE3IDR6Ii8+JiN4YTsJPHBhdGggY2xhc3M9InN0MCIgZD0iTTE3IDE2bDMtNC0zIDJ6bTMtOGwtMy00djJ6Ii8+JiN4YTsJPGcgY2xhc3M9InN0MiI+JiN4YTsJCTxwYXRoIGQ9Ik0yMCA0bC00LTQtMiAyIDYgNnptLS4wMSA4bC01Ljk4IDUuOTkgMiAyTDIwIDE2eiIvPiYjeGE7CQk8Y2lyY2xlIGN4PSI2IiBjeT0iOS45OSIgcj0iMSIvPiYjeGE7CQk8Y2lyY2xlIGN4PSIxMCIgY3k9IjkuOTkiIHI9IjEiLz4mI3hhOwkJPGNpcmNsZSBjeD0iMTMuOTkiIGN5PSI5Ljk5IiByPSIxIi8+JiN4YTsJPC9nPiYjeGE7PC9zdmc+;" vertex="1" parent="cyIWk6aEaihhgI2aiSkn-166">
          <mxGeometry x="13.5" width="42" height="34" as="geometry" />
        </mxCell>
        <mxCell id="cyIWk6aEaihhgI2aiSkn-196" value="" style="edgeStyle=orthogonalEdgeStyle;rounded=0;orthogonalLoop=1;jettySize=auto;html=1;" edge="1" parent="1" source="cyIWk6aEaihhgI2aiSkn-128" target="cyIWk6aEaihhgI2aiSkn-144">
          <mxGeometry relative="1" as="geometry">
            <Array as="points">
              <mxPoint x="700" y="-420" />
              <mxPoint x="700" y="-420" />
            </Array>
          </mxGeometry>
        </mxCell>
        <mxCell id="cyIWk6aEaihhgI2aiSkn-197" style="edgeStyle=orthogonalEdgeStyle;rounded=0;orthogonalLoop=1;jettySize=auto;html=1;exitX=0.5;exitY=1;exitDx=0;exitDy=0;entryX=0.5;entryY=0;entryDx=0;entryDy=0;" edge="1" parent="1" source="cyIWk6aEaihhgI2aiSkn-128" target="cyIWk6aEaihhgI2aiSkn-139">
          <mxGeometry relative="1" as="geometry">
            <Array as="points">
              <mxPoint x="700" y="-470" />
              <mxPoint x="422" y="-470" />
            </Array>
          </mxGeometry>
        </mxCell>
        <mxCell id="cyIWk6aEaihhgI2aiSkn-198" style="edgeStyle=orthogonalEdgeStyle;rounded=0;orthogonalLoop=1;jettySize=auto;html=1;exitX=0.5;exitY=1;exitDx=0;exitDy=0;entryX=0.5;entryY=0;entryDx=0;entryDy=0;" edge="1" parent="1" source="cyIWk6aEaihhgI2aiSkn-118" target="cyIWk6aEaihhgI2aiSkn-133">
          <mxGeometry relative="1" as="geometry">
            <Array as="points">
              <mxPoint x="421" y="-490" />
              <mxPoint x="142" y="-490" />
            </Array>
          </mxGeometry>
        </mxCell>
        <mxCell id="cyIWk6aEaihhgI2aiSkn-209" value="" style="group" vertex="1" connectable="0" parent="1">
          <mxGeometry x="240" y="-564.5" width="69" height="72" as="geometry" />
        </mxCell>
        <mxCell id="cyIWk6aEaihhgI2aiSkn-212" value="" style="group" vertex="1" connectable="0" parent="cyIWk6aEaihhgI2aiSkn-209">
          <mxGeometry width="69" height="72" as="geometry" />
        </mxCell>
        <mxCell id="cyIWk6aEaihhgI2aiSkn-206" value="" style="sketch=0;html=1;verticalAlign=top;labelPosition=center;verticalLabelPosition=bottom;align=center;spacingTop=-6;fontSize=11;fontStyle=1;fontColor=#999999;shape=image;aspect=fixed;imageAspect=0;image=data:image/svg+xml,PHN2ZyB4bWxucz0iaHR0cDovL3d3dy53My5vcmcvMjAwMC9zdmciIGlkPSJzdmc2ODU4MSIgdmVyc2lvbj0iMS4xIiB2aWV3Qm94PSIwIDAgMjM2LjQzMzk0IDI1My4zMDQ0MSIgaGVpZ2h0PSIyNTMuMzA0NDFtbSIgd2lkdGg9IjIzNi40MzM5NG1tIj4mI3hhOyAgJiN4YTsgIDxkZWZzIGlkPSJkZWZzNjg1NzgiLz4mI3hhOyAgPGcgdHJhbnNmb3JtPSJ0cmFuc2xhdGUoMTcuNjIzNTQxLC0xNy45ODI1NTIpIiBpZD0ibGF5ZXIxIj4mI3hhOyAgICA8cGF0aCBpZD0icGF0aDY4NzE1IiBkPSJtIC0xNy42MjM1NDEsMTI5LjE0Mjk5IDg0LjUwNjMyMiw0Ni44MDM1MSB2IDk1LjM0MDQ3IGwgLTQwLjE1ODU2LC0yMC41MTI2NSB2IC01Mi41ODE3MSBsIC00NC4zNDc3NjIsLTIyLjI0NjEyIHoiIHN0eWxlPSJvcGFjaXR5OjE7ZmlsbDojYjVjYmY5O2ZpbGwtb3BhY2l0eToxO3N0cm9rZTpub25lO3N0cm9rZS13aWR0aDowLjI2NDU4M3B4O3N0cm9rZS1saW5lY2FwOmJ1dHQ7c3Ryb2tlLWxpbmVqb2luOm1pdGVyO3N0cm9rZS1vcGFjaXR5OjEiLz4mI3hhOyAgICA8cGF0aCBpZD0icGF0aDY4NzE3IiBkPSJNIDM0LjAyMTMzOSw3NC4yOTk1NjkgMTM4LjM4ODEzLDEzNC44MDE1MyBWIDI1Ni4xNDM5NCBMIDkwLjUyODEyNiwyMzAuMDcxOSBWIDE2My4wNDQ2NiBMIDM0LjAyMTMzOSwxMzAuNTg3NTUgWiIgc3R5bGU9Im9wYWNpdHk6MTtmaWxsOiM3NjllZjU7ZmlsbC1vcGFjaXR5OjE7c3Ryb2tlOm5vbmU7c3Ryb2tlLXdpZHRoOjAuMjY0NTgzcHg7c3Ryb2tlLWxpbmVjYXA6YnV0dDtzdHJva2UtbGluZWpvaW46bWl0ZXI7c3Ryb2tlLW9wYWNpdHk6MSIvPiYjeGE7ICAgIDxwYXRoIGlkPSJwYXRoNjg3MTkiIGQ9Ik0gOTIuODg4OTc4LDgxLjQwMjY2IFYgMTcuOTgyNTUyIEwgMjE4LjgxMDQsOTIuNTkxNTY0IFYgMjM1LjI4NDMyIGwgLTU3Ljk5MjQxLC0zNC43ODA0MyB2IC03Ny40OTgxMiB6IiBzdHlsZT0ib3BhY2l0eToxO2ZpbGw6IzU5ODZmMjtmaWxsLW9wYWNpdHk6MTtzdHJva2U6bm9uZTtzdHJva2Utd2lkdGg6MC4yNjQ1ODNweDtzdHJva2UtbGluZWNhcDpidXR0O3N0cm9rZS1saW5lam9pbjptaXRlcjtzdHJva2Utb3BhY2l0eToxIi8+JiN4YTsgIDwvZz4mI3hhOzwvc3ZnPg==;" vertex="1" parent="cyIWk6aEaihhgI2aiSkn-212">
          <mxGeometry x="15.47999999999999" width="39" height="42" as="geometry" />
        </mxCell>
        <mxCell id="cyIWk6aEaihhgI2aiSkn-208" value="&lt;font style=&quot;font-size: 17px;&quot;&gt;deploy&lt;/font&gt;" style="text;strokeColor=none;fillColor=none;html=1;fontSize=18;fontStyle=1;verticalAlign=middle;align=center;fontFamily=Courier New;" vertex="1" parent="cyIWk6aEaihhgI2aiSkn-212">
          <mxGeometry y="42" width="69" height="30" as="geometry" />
        </mxCell>
        <mxCell id="cyIWk6aEaihhgI2aiSkn-211" value="" style="group" vertex="1" connectable="0" parent="1">
          <mxGeometry x="180" y="-480" width="192.04" height="30" as="geometry" />
        </mxCell>
        <mxCell id="cyIWk6aEaihhgI2aiSkn-199" value="" style="sketch=0;html=1;dashed=0;whitespace=wrap;fillColor=#2875E2;strokeColor=#ffffff;points=[[0.005,0.63,0],[0.1,0.2,0],[0.9,0.2,0],[0.5,0,0],[0.995,0.63,0],[0.72,0.99,0],[0.5,1,0],[0.28,0.99,0]];verticalLabelPosition=bottom;align=center;verticalAlign=top;shape=mxgraph.kubernetes.icon;prIcon=cm" vertex="1" parent="cyIWk6aEaihhgI2aiSkn-211">
          <mxGeometry x="40.90889725200597" y="0.6818181818181818" width="28.40441099197617" height="27.27272727272727" as="geometry" />
        </mxCell>
        <mxCell id="cyIWk6aEaihhgI2aiSkn-200" value="" style="sketch=0;html=1;dashed=0;whitespace=wrap;fillColor=#2875E2;strokeColor=#ffffff;points=[[0.005,0.63,0],[0.1,0.2,0],[0.9,0.2,0],[0.5,0,0],[0.995,0.63,0],[0.72,0.99,0],[0.5,1,0],[0.28,0.99,0]];verticalLabelPosition=bottom;align=center;verticalAlign=top;shape=mxgraph.kubernetes.icon;prIcon=secret" vertex="1" parent="cyIWk6aEaihhgI2aiSkn-211">
          <mxGeometry x="81.81779450401199" width="27.27259816800401" height="29.999999999999996" as="geometry" />
        </mxCell>
        <mxCell id="cyIWk6aEaihhgI2aiSkn-203" value="" style="sketch=0;html=1;dashed=0;whitespace=wrap;fillColor=#2875E2;strokeColor=#ffffff;points=[[0.005,0.63,0],[0.1,0.2,0],[0.9,0.2,0],[0.5,0,0],[0.995,0.63,0],[0.72,0.99,0],[0.5,1,0],[0.28,0.99,0]];verticalLabelPosition=bottom;align=center;verticalAlign=top;shape=mxgraph.kubernetes.icon;prIcon=deploy" vertex="1" parent="cyIWk6aEaihhgI2aiSkn-211">
          <mxGeometry y="0.6818181818181818" width="28.758954768160226" height="28.636363636363633" as="geometry" />
        </mxCell>
        <mxCell id="cyIWk6aEaihhgI2aiSkn-205" value="" style="sketch=0;html=1;dashed=0;whitespace=wrap;fillColor=#2875E2;strokeColor=#ffffff;points=[[0.005,0.63,0],[0.1,0.2,0],[0.9,0.2,0],[0.5,0,0],[0.995,0.63,0],[0.72,0.99,0],[0.5,1,0],[0.28,0.99,0]];verticalLabelPosition=bottom;align=center;verticalAlign=top;shape=mxgraph.kubernetes.icon;prIcon=svc" vertex="1" parent="cyIWk6aEaihhgI2aiSkn-211">
          <mxGeometry x="122.726691756018" y="0.6818181818181818" width="26.972599588155965" height="27.27272727272727" as="geometry" />
        </mxCell>
        <mxCell id="cyIWk6aEaihhgI2aiSkn-204" value="" style="sketch=0;html=1;dashed=0;whitespace=wrap;fillColor=#2875E2;strokeColor=#ffffff;points=[[0.005,0.63,0],[0.1,0.2,0],[0.9,0.2,0],[0.5,0,0],[0.995,0.63,0],[0.72,0.99,0],[0.5,1,0],[0.28,0.99,0]];verticalLabelPosition=bottom;align=center;verticalAlign=top;shape=mxgraph.kubernetes.icon;prIcon=ns" vertex="1" parent="cyIWk6aEaihhgI2aiSkn-211">
          <mxGeometry x="163.63558900802386" y="1.3636363636363635" width="28.40441099197617" height="27.27272727272727" as="geometry" />
        </mxCell>
        <mxCell id="cyIWk6aEaihhgI2aiSkn-216" value="" style="group" vertex="1" connectable="0" parent="1">
          <mxGeometry x="386.25" y="-760" width="69" height="70" as="geometry" />
        </mxCell>
        <mxCell id="cyIWk6aEaihhgI2aiSkn-217" value="&lt;font style=&quot;font-size: 17px;&quot;&gt;build&lt;/font&gt;" style="text;strokeColor=none;fillColor=none;html=1;fontSize=18;fontStyle=1;verticalAlign=middle;align=center;fontFamily=Courier New;" vertex="1" parent="cyIWk6aEaihhgI2aiSkn-216">
          <mxGeometry y="40" width="69" height="30" as="geometry" />
        </mxCell>
        <mxCell id="cyIWk6aEaihhgI2aiSkn-36" value="" style="editableCssRules=.*;html=1;shape=image;verticalLabelPosition=bottom;labelBackgroundColor=#ffffff;verticalAlign=top;aspect=fixed;imageAspect=0;image=data:image/svg+xml,PHN2ZyB4bWxucz0iaHR0cDovL3d3dy53My5vcmcvMjAwMC9zdmciIHhtbG5zOnY9Imh0dHBzOi8vdmVjdGEuaW8vbmFubyIgd2lkdGg9IjE3LjMyOTk5OTkyMzcwNjA1NSIgaGVpZ2h0PSIxOS42MTAwMDA2MTAzNTE1NjIiIHZpZXdCb3g9IjAgMCAxNy4zMjk5OTk5MjM3MDYwNTUgMTkuNjEwMDAwNjEwMzUxNTYyIj4mI3hhOwk8c3R5bGUgdHlwZT0idGV4dC9jc3MiPiYjeGE7CS5zdDB7ZmlsbDojNDI4NWY0O30mI3hhOwkuc3Qxe2ZpbGw6IzY2OWRmNjt9JiN4YTsJLnN0MntmaWxsOiNhZWNiZmE7fSYjeGE7CTwvc3R5bGU+JiN4YTsJPHBhdGggY2xhc3M9InN0MCIgZD0iTTEyLjE4IDcuOThMMTEgNy4yOWwtMy41MiA2LjEgMS4xOC42OCAzLjUyLTIuMDN6IiBmaWxsPSIjNDI4NWY0Ii8+JiN4YTsJPHBhdGggY2xhc3M9InN0MSIgZD0iTTYuMzIgMTIuNzJsMy41My02LjA5LTEuMTktLjY5LTMuNTIgMi4wNHY0LjA2eiIgZmlsbD0iIzY2OWRmNiIvPiYjeGE7CTxwYXRoIGNsYXNzPSJzdDIiIGQ9Ik0zLjc1IDcuOThMMCA1LjgxdjkuMmw3Ljk3IDQuNnYtNC4zM2wtNC4yMi0yLjQ0em05LjEzLTEuMmwzLjc2LTIuMTdMOC42NiAwIC42OCA0LjYxbDMuNzYgMi4xNyA0LjIyLTIuNDR6TTkuMzUgMTkuNjFsNy45OC00LjZ2LTkuMmwtMy43NiAyLjE3djQuODZsLTQuMjIgMi40NHoiIGZpbGw9IiNhZWNiZmEiLz4mI3hhOzwvc3ZnPg==;" vertex="1" parent="cyIWk6aEaihhgI2aiSkn-216">
          <mxGeometry x="18" width="34" height="40" as="geometry" />
        </mxCell>
      </root>
    </mxGraphModel>
  </diagram>
</mxfile>
